<svg width="139" height="13" viewBox="0 0 139 13" fill="none" xmlns="http://www.w3.org/2000/svg">
<path d="M3.75628 12.1673L0.536283 1.10022H3.00164L5.18091 10.2391L7.39375 1.10022H9.60659L11.853 10.2391L14.0162 1.10022H16.3809L13.1608 12.1673H10.5612L9.01834 6.1302L8.49871 3.51449H8.46514L7.9455 6.1302L6.42016 12.1673H3.75337H3.75628Z" fill="white"/>
<path d="M20.4577 12.3352C19.5746 12.3352 18.8053 12.1615 18.1514 11.8156C17.4975 11.4696 16.991 10.9719 16.6334 10.3238C16.2758 9.67571 16.0962 8.89333 16.0962 7.97667C16.0962 7.06 16.2743 6.27763 16.6334 5.62954C16.991 4.98145 17.4917 4.48371 18.1339 4.13777C18.7761 3.79183 19.5118 3.61813 20.3394 3.61813C21.1671 3.61813 21.91 3.78891 22.5026 4.12901C23.0953 4.47057 23.5478 4.93328 23.8601 5.52007C24.1725 6.10685 24.3301 6.77537 24.3301 7.52417C24.3301 7.7475 24.3243 7.96061 24.3126 8.16204C24.3009 8.36348 24.2849 8.54156 24.263 8.6992H17.5734V7.10671H23.2573L22.1509 7.50958C22.1509 6.80602 21.9918 6.26303 21.6736 5.88352C21.3554 5.50401 20.9043 5.31279 20.3234 5.31279C19.8986 5.31279 19.5323 5.41351 19.2257 5.61494C18.9177 5.81638 18.6856 6.11561 18.5295 6.51263C18.3733 6.90966 18.2945 7.41032 18.2945 8.01316C18.2945 8.616 18.3806 9.09476 18.5543 9.48011C18.728 9.86546 18.9732 10.153 19.2914 10.3442C19.6096 10.534 19.9935 10.6289 20.4402 10.6289C20.9321 10.6289 21.3291 10.534 21.6312 10.3442C21.9334 10.1545 22.1684 9.89174 22.3363 9.55602L24.1637 10.261C23.9842 10.6975 23.7142 11.0711 23.3507 11.385C22.9873 11.6988 22.5567 11.9353 22.0604 12.0973C21.5626 12.2593 21.0284 12.341 20.4591 12.341L20.4577 12.3352Z" fill="white"/>
<path d="M30.468 6.81914C30.468 6.33892 30.3308 5.96379 30.0578 5.69521C29.7834 5.42663 29.4229 5.29234 28.9762 5.29234C28.5631 5.29234 28.1997 5.3989 27.8859 5.61055C27.572 5.82366 27.3429 6.17544 27.1984 6.66734L25.2366 6.06304C25.4263 5.32592 25.8423 4.7333 26.4861 4.28518C27.1283 3.83853 27.9924 3.61374 29.0769 3.61374C29.8141 3.61374 30.4578 3.72905 31.0051 3.95676C31.5525 4.18592 31.9802 4.5304 32.2882 4.98728C32.5962 5.44561 32.7494 6.02071 32.7494 6.71405V10.118C32.7494 10.5427 32.9509 10.7558 33.3537 10.7558C33.5435 10.7558 33.723 10.7281 33.8909 10.6726L33.7566 12.0973C33.4661 12.2418 33.1027 12.3147 32.6662 12.3147C32.2751 12.3147 31.9233 12.2476 31.6094 12.1133C31.2971 11.979 31.0504 11.7747 30.8723 11.5017C30.6928 11.2273 30.6037 10.8843 30.6037 10.4712V10.4041L31.0066 10.3369C30.9395 10.7617 30.7555 11.1222 30.4534 11.4185C30.1512 11.7148 29.7849 11.9411 29.3557 12.0973C28.9251 12.2534 28.4814 12.3323 28.0231 12.3323C27.4523 12.3323 26.9604 12.2461 26.5474 12.0724C26.1343 11.8987 25.8146 11.6448 25.5913 11.309C25.368 10.9733 25.2556 10.5602 25.2556 10.0683C25.2556 9.44215 25.457 8.93127 25.8599 8.53424C26.2627 8.13721 26.8378 7.86572 27.5866 7.72121L30.7395 7.08334L30.7234 8.50797L28.7106 8.91083C28.3311 8.98965 28.042 9.09329 27.8465 9.22174C27.6509 9.35019 27.5531 9.56038 27.5531 9.85085C27.5531 10.1413 27.6567 10.3428 27.8625 10.4887C28.0698 10.6347 28.3179 10.7062 28.6084 10.7062C28.8434 10.7062 29.0726 10.6785 29.2959 10.623C29.5192 10.5675 29.7206 10.4785 29.9002 10.3544C30.0783 10.2318 30.2184 10.064 30.3191 9.85085C30.4198 9.6392 30.4695 9.38084 30.4695 9.08015V6.81622L30.468 6.81914Z" fill="white"/>
<path d="M40.0419 3.78452V5.49524H33.5187V3.78452H40.0419ZM37.359 1.21844V9.43485C37.359 9.83772 37.4627 10.1311 37.6685 10.315C37.8758 10.4989 38.1575 10.5924 38.5151 10.5924C38.8056 10.5924 39.0537 10.55 39.261 10.4668C39.4682 10.3836 39.6551 10.2683 39.8229 10.1238L40.1922 11.6491C39.9236 11.8623 39.5879 12.0287 39.1865 12.1527C38.7837 12.2753 38.3589 12.3366 37.9122 12.3366C37.3532 12.3366 36.8584 12.2534 36.4278 12.0856C35.9972 11.9177 35.6615 11.6491 35.4221 11.2813C35.1812 10.912 35.0615 10.4201 35.0615 9.80561V1.85778L37.359 1.2199V1.21844Z" fill="white"/>
<path d="M41.1483 12.1673V0.110565H43.4458V5.20768C43.7144 4.67053 44.0837 4.27205 44.5522 4.00931C45.0222 3.74657 45.5521 3.6152 46.1447 3.6152C46.7373 3.6152 47.2424 3.72759 47.6963 3.95092C48.1488 4.17425 48.5064 4.51289 48.7692 4.96538C49.0319 5.41788 49.1633 5.98568 49.1633 6.66734V12.1673H46.8658V7.33878C46.8658 6.61187 46.7256 6.11267 46.4468 5.83826C46.1666 5.56384 45.809 5.42809 45.374 5.42809C45.05 5.42809 44.7391 5.50399 44.4427 5.65434C44.1464 5.80468 43.9056 6.05137 43.7217 6.39147C43.5378 6.73303 43.4443 7.1826 43.4443 7.74165V12.1688H41.1468L41.1483 12.1673Z" fill="white"/>
<path d="M54.8311 12.3352C53.948 12.3352 53.1802 12.1615 52.5263 11.8156C51.8724 11.4696 51.3659 10.9719 51.0083 10.3238C50.6507 9.67571 50.4711 8.89333 50.4711 7.97667C50.4711 7.06 50.6492 6.27763 51.0083 5.62954C51.3659 4.98145 51.8666 4.48371 52.5088 4.13777C53.1511 3.79183 53.8867 3.61813 54.7143 3.61813C55.542 3.61813 56.2849 3.78891 56.8776 4.12901C57.4702 4.47057 57.9227 4.93328 58.235 5.52007C58.5474 6.10685 58.705 6.77537 58.705 7.52417C58.705 7.7475 58.6992 7.96061 58.6875 8.16204C58.6759 8.36348 58.6598 8.54156 58.6379 8.6992H51.9483V7.10671H57.6322L56.5258 7.50958C56.5258 6.80602 56.3667 6.26303 56.0485 5.88352C55.7303 5.50401 55.2792 5.31279 54.6983 5.31279C54.2735 5.31279 53.9072 5.41351 53.6006 5.61494C53.2926 5.81638 53.0606 6.11561 52.9044 6.51263C52.7482 6.90966 52.6694 7.41032 52.6694 8.01316C52.6694 8.616 52.7555 9.09476 52.9292 9.48011C53.1029 9.86546 53.3481 10.153 53.6663 10.3442C53.9845 10.534 54.3669 10.6289 54.8151 10.6289C55.307 10.6289 55.704 10.534 56.0061 10.3442C56.3083 10.1545 56.5433 9.89174 56.7097 9.55602L58.5372 10.261C58.3576 10.6975 58.0876 11.0711 57.7242 11.385C57.3607 11.6988 56.9301 11.9353 56.4324 12.0973C55.9346 12.2593 55.4018 12.341 54.8311 12.341V12.3352Z" fill="white"/>
<path d="M60.0625 12.1673V3.78306H62.0579L62.2082 5.42664C62.4316 4.84569 62.7585 4.39904 63.1891 4.08521C63.6197 3.77285 64.1583 3.6152 64.8079 3.6152C64.9976 3.6152 65.1713 3.63126 65.3275 3.66483C65.4837 3.6984 65.6121 3.74365 65.7129 3.79912L65.4443 5.72733C65.3319 5.68208 65.1947 5.6485 65.0341 5.62661C64.8721 5.60472 64.6619 5.59304 64.405 5.59304C64.0693 5.59304 63.7452 5.67478 63.4329 5.8368C63.1191 5.99882 62.8622 6.2455 62.6622 6.57393C62.4607 6.90381 62.36 7.31981 62.36 7.82339V12.1659H60.0625V12.1673Z" fill="white"/>
<path d="M74.9685 2.96272H68.9985V5.76234H73.7103V7.64091H68.9985V12.1688H66.685V1.10165H74.9685V2.96272Z" fill="white"/>
<path d="M79.0775 3.61667C79.927 3.61667 80.6729 3.79037 81.3166 4.13631C81.9588 4.48371 82.4624 4.97999 82.8259 5.62807C83.1893 6.27616 83.3703 7.05854 83.3703 7.9752C83.3703 8.89187 83.1879 9.66111 82.8259 10.315C82.4624 10.969 81.9588 11.4696 81.3166 11.8156C80.6729 12.163 79.927 12.3352 79.0775 12.3352C78.228 12.3352 77.4952 12.1615 76.8471 11.8156C76.199 11.4696 75.6925 10.969 75.3291 10.315C74.9656 9.66111 74.7846 8.88165 74.7846 7.9752C74.7846 7.06876 74.9656 6.27616 75.3291 5.62807C75.6925 4.97999 76.1976 4.48225 76.8471 4.13631C77.4952 3.79037 78.2382 3.61667 79.0775 3.61667ZM79.0775 5.32593C78.6527 5.32593 78.2922 5.42372 77.9959 5.61932C77.6996 5.81491 77.4733 6.1083 77.3171 6.49949C77.1609 6.89068 77.0821 7.38258 77.0821 7.9752C77.0821 8.56782 77.1595 9.05973 77.3171 9.45092C77.4733 9.8421 77.6996 10.1355 77.9959 10.3311C78.2922 10.5267 78.6527 10.6245 79.0775 10.6245C79.5022 10.6245 79.8453 10.5267 80.1416 10.3311C80.4379 10.1355 80.6641 9.8421 80.8203 9.45092C80.9765 9.05973 81.0553 8.56782 81.0553 7.9752C81.0553 7.38258 80.9765 6.89068 80.8203 6.49949C80.6641 6.1083 80.4379 5.81491 80.1416 5.61932C79.8453 5.42372 79.4906 5.32593 79.0775 5.32593Z" fill="white"/>
<path d="M84.7117 12.1673V3.78306H86.7071L86.8574 5.42664C87.0808 4.84569 87.4077 4.39904 87.8383 4.08521C88.2689 3.77285 88.8075 3.6152 89.4571 3.6152C89.6468 3.6152 89.8205 3.63126 89.9767 3.66483C90.1329 3.6984 90.2614 3.74365 90.3621 3.79912L90.0935 5.72733C89.9811 5.68208 89.8439 5.6485 89.6833 5.62661C89.5213 5.60472 89.3111 5.59304 89.0542 5.59304C88.7185 5.59304 88.3945 5.67478 88.0821 5.8368C87.7683 5.99882 87.5114 6.2455 87.3114 6.57393C87.11 6.90381 87.0092 7.31981 87.0092 7.82339V12.1659H84.7117V12.1673Z" fill="white"/>
<path d="M94.9235 12.3352C94.0404 12.3352 93.2726 12.1615 92.6187 11.8156C91.9648 11.4696 91.4583 10.9719 91.1007 10.3238C90.743 9.67571 90.5635 8.89333 90.5635 7.97667C90.5635 7.06 90.7416 6.27763 91.1007 5.62954C91.4583 4.98145 91.9589 4.48371 92.6012 4.13777C93.2434 3.79183 93.9791 3.61813 94.8067 3.61813C95.6344 3.61813 96.3773 3.78891 96.9699 4.12901C97.5626 4.47057 98.0151 4.93328 98.3274 5.52007C98.6398 6.10685 98.7974 6.77537 98.7974 7.52417C98.7974 7.7475 98.7916 7.96061 98.7799 8.16204C98.7682 8.36348 98.7522 8.54156 98.7303 8.6992H92.0407V7.10671H97.7246L96.6182 7.50958C96.6182 6.80602 96.4591 6.26303 96.1408 5.88352C95.8226 5.50401 95.3716 5.31279 94.7907 5.31279C94.3659 5.31279 93.9995 5.41351 93.693 5.61494C93.385 5.81638 93.1529 6.11561 92.9968 6.51263C92.8406 6.90966 92.7617 7.41032 92.7617 8.01316C92.7617 8.616 92.8479 9.09476 93.0216 9.48011C93.1953 9.86546 93.4405 10.153 93.7587 10.3442C94.0769 10.534 94.4593 10.6289 94.9074 10.6289C95.3993 10.6289 95.7964 10.534 96.0985 10.3442C96.4007 10.1545 96.6357 9.89174 96.8021 9.55602L98.6296 10.261C98.45 10.6975 98.18 11.0711 97.8165 11.385C97.4531 11.6988 97.0225 11.9353 96.5247 12.0973C96.027 12.2593 95.4942 12.341 94.9235 12.341V12.3352Z" fill="white"/>
<path d="M100.155 12.1673V3.78306H102.217L102.302 5.29235C102.581 4.7333 102.965 4.31438 103.451 4.03412C103.937 3.75533 104.477 3.6152 105.07 3.6152C105.662 3.6152 106.218 3.75533 106.704 4.03412C107.19 4.31438 107.557 4.72746 107.802 5.27483C107.98 4.90554 108.221 4.59901 108.523 4.35233C108.825 4.10711 109.161 3.92173 109.529 3.79912C109.898 3.67651 110.272 3.6152 110.653 3.6152C111.2 3.6152 111.701 3.7276 112.153 3.95092C112.606 4.17425 112.966 4.50997 113.235 4.95663C113.503 5.40328 113.638 5.97401 113.638 6.66734V12.1673H111.34V7.11984C111.34 6.50532 111.206 6.06889 110.937 5.81199C110.669 5.55509 110.323 5.42664 109.898 5.42664C109.562 5.42664 109.253 5.50984 108.967 5.6777C108.681 5.84556 108.457 6.0937 108.295 6.42358C108.133 6.75346 108.052 7.16363 108.052 7.65553V12.1659H105.754V7.11838C105.754 6.50386 105.617 6.06743 105.344 5.81053C105.07 5.55363 104.721 5.42518 104.296 5.42518C104.005 5.42518 103.718 5.504 103.432 5.66018C103.147 5.81636 102.912 6.06305 102.727 6.39731C102.543 6.73303 102.449 7.17385 102.449 7.72268V12.1659H100.152L100.155 12.1673Z" fill="white"/>
<path d="M119.237 3.61667C120.087 3.61667 120.832 3.79037 121.476 4.13631C122.118 4.48371 122.622 4.97999 122.985 5.62807C123.349 6.27616 123.53 7.05854 123.53 7.9752C123.53 8.89187 123.347 9.66111 122.985 10.315C122.622 10.969 122.118 11.4696 121.476 11.8156C120.832 12.163 120.087 12.3352 119.237 12.3352C118.387 12.3352 117.655 12.1615 117.007 11.8156C116.359 11.4696 115.852 10.969 115.489 10.315C115.125 9.66111 114.944 8.88165 114.944 7.9752C114.944 7.06876 115.125 6.27616 115.489 5.62807C115.852 4.97999 116.357 4.48225 117.007 4.13631C117.655 3.79037 118.398 3.61667 119.237 3.61667ZM119.237 5.32593C118.812 5.32593 118.452 5.42372 118.155 5.61932C117.859 5.81491 117.633 6.1083 117.477 6.49949C117.32 6.89068 117.242 7.38258 117.242 7.9752C117.242 8.56782 117.319 9.05973 117.477 9.45092C117.633 9.8421 117.859 10.1355 118.155 10.3311C118.452 10.5267 118.812 10.6245 119.237 10.6245C119.662 10.6245 120.005 10.5267 120.301 10.3311C120.597 10.1355 120.824 9.8421 120.98 9.45092C121.136 9.05973 121.215 8.56782 121.215 7.9752C121.215 7.38258 121.136 6.89068 120.98 6.49949C120.824 6.1083 120.597 5.81491 120.301 5.61932C120.005 5.42372 119.65 5.32593 119.237 5.32593Z" fill="white"/>
<path d="M128.224 12.3352C127.375 12.3352 126.601 12.1849 125.902 11.8827C125.203 11.5806 124.636 11.1558 124.2 10.6084L125.525 9.267C125.794 9.66986 126.151 9.99975 126.598 10.2566C127.045 10.5135 127.576 10.642 128.191 10.642C128.627 10.642 128.976 10.5778 129.239 10.4493C129.501 10.3209 129.633 10.1165 129.633 9.83772C129.633 9.65965 129.571 9.50492 129.449 9.37647C129.326 9.24802 129.079 9.14439 128.712 9.06703L127.236 8.76488C126.264 8.56344 125.573 8.25983 125.165 7.85113C124.756 7.44389 124.553 6.91549 124.553 6.26595C124.553 5.80761 124.69 5.37701 124.963 4.97415C125.238 4.57128 125.648 4.24432 126.195 3.99326C126.743 3.7422 127.424 3.61667 128.24 3.61667C129.056 3.61667 129.808 3.74804 130.428 4.01078C131.049 4.27351 131.538 4.66178 131.895 5.17558L130.52 6.51701C130.273 6.12582 129.952 5.82659 129.555 5.61932C129.158 5.41205 128.742 5.30841 128.306 5.30841C127.993 5.30841 127.725 5.34198 127.502 5.40913C127.278 5.47627 127.11 5.56823 126.998 5.68646C126.886 5.80323 126.83 5.95212 126.83 6.1302C126.83 6.30828 126.907 6.463 127.065 6.59145C127.221 6.7199 127.506 6.82937 127.92 6.91841L129.631 7.27019C130.459 7.43805 131.051 7.71976 131.409 8.11679C131.767 8.51382 131.946 8.99112 131.946 9.55017C131.946 10.1092 131.803 10.5646 131.519 10.9836C131.234 11.4025 130.815 11.7324 130.26 11.9732C129.707 12.214 129.028 12.3337 128.223 12.3337L128.224 12.3352Z" fill="white"/>
<path d="M138.839 3.78452V5.49524H132.316V3.78452H138.839ZM136.156 1.21844V9.43485C136.156 9.83772 136.26 10.1311 136.465 10.315C136.673 10.4989 136.954 10.5924 137.312 10.5924C137.602 10.5924 137.851 10.55 138.058 10.4668C138.265 10.3836 138.452 10.2683 138.62 10.1238L138.989 11.6491C138.72 11.8623 138.385 12.0287 137.983 12.1527C137.58 12.2753 137.156 12.3366 136.709 12.3366C136.15 12.3366 135.655 12.2534 135.225 12.0856C134.794 11.9177 134.458 11.6491 134.219 11.2813C133.978 10.912 133.858 10.4201 133.858 9.80561V1.85778L136.156 1.2199V1.21844Z" fill="white"/>
</svg>
